<?xml version="1.0" encoding="UTF-8"?>
<svg id="Layer_1" xmlns="http://www.w3.org/2000/svg" version="1.1" xmlns:xlink="http://www.w3.org/1999/xlink" viewBox="0 0 704.1 311.5">
  <!-- Generator: Adobe Illustrator 29.3.0, SVG Export Plug-In . SVG Version: 2.1.0 Build 146)  -->
  <defs>
    <style>
      .st0 {
        clip-path: url(#clippath-6);
      }

      .st1 {
        clip-path: url(#clippath-7);
      }

      .st2 {
        clip-path: url(#clippath-4);
      }

      .st3, .st4, .st5 {
        fill: #231f20;
      }

      .st6 {
        clip-path: url(#clippath-9);
      }

      .st7 {
        clip-path: url(#clippath-10);
      }

      .st8 {
        clip-path: url(#clippath-11);
      }

      .st9, .st10, .st11 {
        fill: none;
      }

      .st12 {
        clip-path: url(#clippath-1);
      }

      .st10, .st4, .st13, .st14 {
        fill-rule: evenodd;
      }

      .st15 {
        clip-path: url(#clippath-5);
      }

      .st16 {
        clip-path: url(#clippath-8);
      }

      .st17 {
        clip-path: url(#clippath-3);
      }

      .st18 {
        fill: #a7a9ac;
      }

      .st11, .st5 {
        clip-rule: evenodd;
      }

      .st19 {
        clip-path: url(#clippath-2);
      }

      .st13 {
        fill: #d1d3d4;
      }

      .st14 {
        fill: #6e6f71;
      }

      .st20 {
        clip-path: url(#clippath);
      }
    </style>
    <clipPath id="clippath">
      <path class="st11" d="M26.6,160.9h2.9c6.8,0,9,4.3,9,11.6,0,10.7-4.1,11.8-9,11.8h-2.9v-23.4ZM0,245.8h26.6v-40h8.1c18,0,31.3-9.6,31.3-33.2s-10.4-33.1-30.7-33.1H0v106.3Z"/>
    </clipPath>
    <clipPath id="clippath-1">
      <path class="st11" d="M101.4,218.3c0,4.6-1.1,9.9-6.1,9.9s-5.2-3.3-5.2-8.1.7-8.5,4.9-10.3c2.8-1.2,4.8-2,6.4-3.1v11.7ZM124.8,186.3c0-12.4-4.7-23.1-28.2-23.1s-29,8.9-29,27h22.6c0-4.5.8-9.1,6.3-9.1s4.9,2.2,4.9,6.1-1.9,7-7.2,8.3l-12,3.1c-9.7,2.5-17.2,7.5-17.2,25.4s5.9,23.9,19.6,23.9,13.8-2.8,16.9-10.7l.3.2c0,2.7.3,5.7,1.2,8.5h24.2c-1.6-3.7-2.4-7.7-2.4-11.9v-47.6Z"/>
    </clipPath>
    <clipPath id="clippath-2">
      <path class="st5" d="M169,197.1h23.8c0-24.1-6.1-34-29.7-34s-31.5,19.7-31.5,42.3,3.1,42.5,31.5,42.5,18.6-2.8,23.3-8.8c4.7-5.8,6.4-14.9,6.4-27.9h-23.4c0,14-1.2,17.9-6.2,17.9s-5.7-3.9-5.7-23.7,1.1-23.5,5.9-23.5,5.7,3.4,5.7,11.5v3.7Z"/>
    </clipPath>
    <clipPath id="clippath-3">
      <path class="st11" d="M198.1,245.8h25.8v-80.6h-25.8v80.6ZM198.1,158.8h25.8v-20.6h-25.8v20.6Z"/>
    </clipPath>
    <clipPath id="clippath-4">
      <path class="st5" d="M235.6,165.2h-7.9v18.8h7.9v61.8h25.8v-61.8h9v-18.8h-9v-3.3c0-3.1,0-5.8,5.6-5.8h3.5v-18.3c-2.3-.1-9.8-.4-13.2-.4-14.1,0-21.7,4-21.7,18.3v9.5Z"/>
    </clipPath>
    <clipPath id="clippath-5">
      <path class="st11" d="M274.3,245.8h25.8v-80.6h-25.8v80.6ZM274.3,158.8h25.8v-20.6h-25.8v20.6Z"/>
    </clipPath>
    <clipPath id="clippath-6">
      <path class="st5" d="M343.5,197.1h23.8c0-24.1-6.1-34-29.7-34s-31.5,19.7-31.5,42.3,3.1,42.5,31.5,42.5,18.6-2.8,23.3-8.8c4.7-5.8,6.4-14.9,6.4-27.9h-23.4c0,14-1.2,17.9-6.3,17.9s-5.7-3.9-5.7-23.7,1.1-23.5,5.9-23.5,5.7,3.4,5.7,11.5v3.7Z"/>
    </clipPath>
    <clipPath id="clippath-7">
      <path class="st5" d="M429.8,178.8h25.8v-7.7c0-16.5-3.3-33.7-31.7-33.7s-34.2,22.3-34.2,55.2,0,55.3,34.2,55.3,32.2-14.3,32.2-39.2v-6.7h-25.8v8.2c0,13.2-1.7,18-6,18-6.5,0-7.2-4.5-7.2-35.6s.3-35.6,7.2-35.6,5.5,8.5,5.5,13.1v8.6Z"/>
    </clipPath>
    <clipPath id="clippath-8">
      <path class="st11" d="M491.7,163.1c-28.5,0-31.5,19.7-31.5,42.3s3.1,42.5,31.5,42.5,31.5-19.7,31.5-42.5-3.1-42.3-31.5-42.3ZM485.9,205.4c0-18.8,1.1-23.7,5.7-23.7s5.7,4.9,5.7,23.7-1.1,23.7-5.7,23.7-5.7-4.9-5.7-23.7Z"/>
    </clipPath>
    <clipPath id="clippath-9">
      <path class="st11" d="M563,218.3c0,4.6-1.1,9.9-6.1,9.9s-5.2-3.3-5.2-8.1.7-8.5,4.9-10.3c2.8-1.2,4.8-2,6.4-3.1v11.7ZM586.4,186.3c0-12.4-4.6-23.1-28.2-23.1s-29,8.9-29,27h22.6c0-4.5.8-9.1,6.2-9.1s4.9,2.2,4.9,6.1-1.9,7-7.2,8.3l-12,3.1c-9.7,2.5-17.2,7.5-17.2,25.4s5.9,23.9,19.6,23.9,13.8-2.8,16.9-10.7l.3.2c0,2.7.3,5.7,1.2,8.5h24.2c-1.6-3.7-2.4-7.7-2.4-11.9v-47.6Z"/>
    </clipPath>
    <clipPath id="clippath-10">
      <path class="st5" d="M592.8,219.9c.4,22.5,10.7,28,29.4,28s29.5-7,29.5-27-8.8-21-16-23.8c-15.6-6.1-19-7.6-19-11.5s2.8-5.5,5.4-5.5,4.3.7,5.2,2.2c.8,1.3,1.1,3.7,1.1,5.8h21.8c0-7.4,0-25-28.7-25s-28.2,10.9-28.2,27.1,7.5,19.1,24.1,25.6c9.3,3.7,10.1,4.9,10.1,8.8s-.8,6.2-5.3,6.2-4.5-1.2-5.4-3.1c-.9-1.9-1.1-4.5-1.3-7.9h-22.6Z"/>
    </clipPath>
    <clipPath id="clippath-11">
      <path class="st5" d="M660.5,165.2h-7.9v18.8h7.9v44.2c0,18.2,7.3,18.8,22.1,18.8s10.7-.6,12.8-.9v-19.2c-.9.3-2.1.4-4.1.4-4.3,0-4.9-2.2-4.9-7.4v-35.9h9v-18.8h-9v-23.7h-25.8v23.7Z"/>
    </clipPath>
  </defs>
  <g>
    <g>
      <path class="st4" d="M26.6,160.9h2.9c6.8,0,9,4.3,9,11.6,0,10.7-4.1,11.8-9,11.8h-2.9v-23.4ZM0,245.8h26.6v-40h8.1c18,0,31.3-9.6,31.3-33.2s-10.4-33.1-30.7-33.1H0v106.3Z"/>
      <g>
        <g class="st20">
          <path class="st14" d="M-31.9,250.4c247.3-92.4,498.7-92.4,754.3,0,28.3,6.7-759.9,1.2-754.3,0Z"/>
        </g>
        <path class="st10" d="M26.6,160.9h2.9c6.8,0,9,4.3,9,11.6,0,10.7-4.1,11.8-9,11.8h-2.9v-23.4Z"/>
        <path class="st10" d="M0,245.8h26.6v-40h8.1c18,0,31.3-9.6,31.3-33.2s-10.4-33.1-30.7-33.1H0v106.3Z"/>
      </g>
    </g>
    <g>
      <path class="st4" d="M101.4,218.3c0,4.6-1.1,9.9-6.1,9.9s-5.2-3.3-5.2-8.1.7-8.5,4.9-10.3c2.8-1.2,4.8-2,6.4-3.1v11.7ZM124.8,186.3c0-12.4-4.7-23.1-28.2-23.1s-29,8.9-29,27h22.6c0-4.5.8-9.1,6.3-9.1s4.9,2.2,4.9,6.1-1.9,7-7.2,8.3l-12,3.1c-9.7,2.5-17.2,7.5-17.2,25.4s5.9,23.9,19.6,23.9,13.8-2.8,16.9-10.7l.3.2c0,2.7.3,5.7,1.2,8.5h24.2c-1.6-3.7-2.4-7.7-2.4-11.9v-47.6Z"/>
      <g>
        <g class="st12">
          <path class="st14" d="M-31.9,250.4c247.3-92.4,498.7-92.4,754.3,0,28.3,6.7-759.9,1.2-754.3,0Z"/>
        </g>
        <path class="st10" d="M101.4,218.3c0,4.6-1.1,9.9-6.1,9.9s-5.2-3.3-5.2-8.1.7-8.5,4.9-10.3c2.8-1.2,4.8-2,6.4-3.1v11.7Z"/>
        <path class="st10" d="M124.8,186.3c0-12.4-4.7-23.1-28.2-23.1s-29,8.9-29,27h22.6c0-4.5.8-9.1,6.3-9.1s4.9,2.2,4.9,6.1-1.9,7-7.2,8.3l-12,3.1c-9.7,2.5-17.2,7.5-17.2,25.4s5.9,23.9,19.6,23.9,13.8-2.8,16.9-10.7l.3.2c0,2.7.3,5.7,1.2,8.5h24.2c-1.6-3.7-2.4-7.7-2.4-11.9v-47.6Z"/>
      </g>
    </g>
    <g>
      <path class="st4" d="M169,197.1h23.8c0-24.1-6.1-34-29.7-34s-31.5,19.7-31.5,42.3,3.1,42.5,31.5,42.5,18.6-2.8,23.3-8.8c4.7-5.8,6.4-14.9,6.4-27.9h-23.4c0,14-1.2,17.9-6.2,17.9s-5.7-3.9-5.7-23.7,1.1-23.5,5.9-23.5,5.7,3.4,5.7,11.5v3.7Z"/>
      <g class="st19">
        <path class="st14" d="M-31.9,250.4c247.3-92.4,498.7-92.4,754.3,0,28.3,6.7-759.9,1.2-754.3,0Z"/>
      </g>
    </g>
    <g>
      <path class="st4" d="M198.1,245.8h25.8v-80.6h-25.8v80.6ZM198.1,158.8h25.8v-20.6h-25.8v20.6Z"/>
      <g>
        <g class="st17">
          <path class="st14" d="M-31.9,250.4c247.3-92.4,498.7-92.4,754.3,0,28.3,6.7-759.9,1.2-754.3,0Z"/>
        </g>
        <rect class="st9" x="198.1" y="165.2" width="25.8" height="80.6"/>
        <rect class="st9" x="198.1" y="138.3" width="25.8" height="20.6"/>
      </g>
    </g>
    <g>
      <path class="st4" d="M235.6,165.2h-7.9v18.8h7.9v61.8h25.8v-61.8h9v-18.8h-9v-3.3c0-3.1,0-5.8,5.6-5.8h3.5v-18.3c-2.3-.1-9.8-.4-13.2-.4-14.1,0-21.7,4-21.7,18.3v9.5Z"/>
      <g class="st2">
        <path class="st14" d="M-31.9,250.4c247.3-92.4,498.7-92.4,754.3,0,28.3,6.7-759.9,1.2-754.3,0Z"/>
      </g>
    </g>
    <g>
      <path class="st4" d="M274.3,245.8h25.8v-80.6h-25.8v80.6ZM274.3,158.8h25.8v-20.6h-25.8v20.6Z"/>
      <g>
        <g class="st15">
          <path class="st14" d="M-31.9,250.4c247.3-92.4,498.7-92.4,754.3,0,28.3,6.7-759.9,1.2-754.3,0Z"/>
        </g>
        <rect class="st9" x="274.3" y="165.2" width="25.8" height="80.6"/>
        <rect class="st9" x="274.3" y="138.3" width="25.8" height="20.6"/>
      </g>
    </g>
    <g>
      <path class="st4" d="M343.5,197.1h23.8c0-24.1-6.1-34-29.7-34s-31.5,19.7-31.5,42.3,3.1,42.5,31.5,42.5,18.6-2.8,23.3-8.8c4.7-5.8,6.4-14.9,6.4-27.9h-23.4c0,14-1.2,17.9-6.3,17.9s-5.7-3.9-5.7-23.7,1.1-23.5,5.9-23.5,5.7,3.4,5.7,11.5v3.7Z"/>
      <g class="st0">
        <path class="st14" d="M-31.9,250.4c247.3-92.4,498.7-92.4,754.3,0,28.3,6.7-759.9,1.2-754.3,0Z"/>
      </g>
    </g>
    <g>
      <path class="st4" d="M429.8,178.8h25.8v-7.7c0-16.5-3.3-33.7-31.7-33.7s-34.2,22.3-34.2,55.2,0,55.3,34.2,55.3,32.2-14.3,32.2-39.2v-6.7h-25.8v8.2c0,13.2-1.7,18-6,18-6.5,0-7.2-4.5-7.2-35.6s.3-35.6,7.2-35.6,5.5,8.5,5.5,13.1v8.6Z"/>
      <g class="st1">
        <path class="st14" d="M-31.9,250.4c247.3-92.4,498.7-92.4,754.3,0,28.3,6.7-759.9,1.2-754.3,0Z"/>
      </g>
    </g>
    <g>
      <path class="st4" d="M491.7,163.1c-28.5,0-31.5,19.7-31.5,42.3s3.1,42.5,31.5,42.5,31.5-19.7,31.5-42.5-3.1-42.3-31.5-42.3ZM485.9,205.4c0-18.8,1.1-23.7,5.7-23.7s5.7,4.9,5.7,23.7-1.1,23.7-5.7,23.7-5.7-4.9-5.7-23.7Z"/>
      <g>
        <g class="st16">
          <path class="st14" d="M-31.9,250.4c247.3-92.4,498.7-92.4,754.3,0,28.3,6.7-759.9,1.2-754.3,0Z"/>
        </g>
        <path class="st10" d="M491.7,163.1c-28.5,0-31.5,19.7-31.5,42.3s3.1,42.5,31.5,42.5,31.5-19.7,31.5-42.5-3.1-42.3-31.5-42.3Z"/>
        <path class="st10" d="M485.9,205.4c0-18.8,1.1-23.7,5.7-23.7s5.7,4.9,5.7,23.7-1.1,23.7-5.7,23.7-5.7-4.9-5.7-23.7Z"/>
      </g>
    </g>
    <g>
      <path class="st4" d="M563,218.3c0,4.6-1.1,9.9-6.1,9.9s-5.2-3.3-5.2-8.1.7-8.5,4.9-10.3c2.8-1.2,4.8-2,6.4-3.1v11.7ZM586.4,186.3c0-12.4-4.6-23.1-28.2-23.1s-29,8.9-29,27h22.6c0-4.5.8-9.1,6.2-9.1s4.9,2.2,4.9,6.1-1.9,7-7.2,8.3l-12,3.1c-9.7,2.5-17.2,7.5-17.2,25.4s5.9,23.9,19.6,23.9,13.8-2.8,16.9-10.7l.3.2c0,2.7.3,5.7,1.2,8.5h24.2c-1.6-3.7-2.4-7.7-2.4-11.9v-47.6Z"/>
      <g>
        <g class="st6">
          <path class="st14" d="M-31.9,250.4c247.3-92.4,498.7-92.4,754.3,0,28.3,6.7-759.9,1.2-754.3,0Z"/>
        </g>
        <path class="st10" d="M563,218.3c0,4.6-1.1,9.9-6.1,9.9s-5.2-3.3-5.2-8.1.7-8.5,4.9-10.3c2.8-1.2,4.8-2,6.4-3.1v11.7Z"/>
        <path class="st10" d="M586.4,186.3c0-12.4-4.6-23.1-28.2-23.1s-29,8.9-29,27h22.6c0-4.5.8-9.1,6.2-9.1s4.9,2.2,4.9,6.1-1.9,7-7.2,8.3l-12,3.1c-9.7,2.5-17.2,7.5-17.2,25.4s5.9,23.9,19.6,23.9,13.8-2.8,16.9-10.7l.3.2c0,2.7.3,5.7,1.2,8.5h24.2c-1.6-3.7-2.4-7.7-2.4-11.9v-47.6Z"/>
      </g>
    </g>
    <g>
      <path class="st4" d="M592.8,219.9c.4,22.5,10.7,28,29.4,28s29.5-7,29.5-27-8.8-21-16-23.8c-15.6-6.1-19-7.6-19-11.5s2.8-5.5,5.4-5.5,4.3.7,5.2,2.2c.8,1.3,1.1,3.7,1.1,5.8h21.8c0-7.4,0-25-28.7-25s-28.2,10.9-28.2,27.1,7.5,19.1,24.1,25.6c9.3,3.7,10.1,4.9,10.1,8.8s-.8,6.2-5.3,6.2-4.5-1.2-5.4-3.1c-.9-1.9-1.1-4.5-1.3-7.9h-22.6Z"/>
      <g class="st7">
        <path class="st14" d="M-31.9,250.4c247.3-92.4,498.7-92.4,754.3,0,28.3,6.7-759.9,1.2-754.3,0Z"/>
      </g>
    </g>
    <g>
      <path class="st4" d="M660.5,165.2h-7.9v18.8h7.9v44.2c0,18.2,7.3,18.8,22.1,18.8s10.7-.6,12.8-.9v-19.2c-.9.3-2.1.4-4.1.4-4.3,0-4.9-2.2-4.9-7.4v-35.9h9v-18.8h-9v-23.7h-25.8v23.7Z"/>
      <g class="st8">
        <path class="st14" d="M-31.9,250.4c247.3-92.4,498.7-92.4,754.3,0,28.3,6.7-759.9,1.2-754.3,0Z"/>
      </g>
    </g>
    <g>
      <path class="st18" d="M66.7,287.2h19.9c6.6,0,8.9,2.4,8.9,8.4v7.3c0,5.9-2.3,8.4-8.9,8.4h-19.9v-24.1ZM73.3,305.1h11.7c2.8,0,3.9-.9,3.9-4.3v-3.3c0-3.4-1.1-4.3-3.9-4.3h-11.7v11.9Z"/>
      <path class="st18" d="M109.6,287.2h6.6v24.1h-6.6v-24.1Z"/>
      <path class="st18" d="M130.5,303.4h6.6c0,2.6,1,2.8,2.8,2.8h8.1c1.4,0,2.8-.2,2.8-2s-.8-2.2-9.3-2.2-11-1.3-11-7.3.4-7.7,8.7-7.7h9.2c7.6,0,8.3,2.9,8.3,7.1v.8h-6.6c0-1.8-.2-2.5-3.2-2.5h-7.3c-1.5,0-2.5.6-2.5,1.9,0,2.1.8,2.2,7.8,2.1,10.2,0,12.6.7,12.6,7.7s-2,7.6-10.7,7.6h-8c-6,0-8.4-1.3-8.4-6.5v-1.7Z"/>
      <path class="st18" d="M169.9,287.2h25.1v6h-9.3v18.1h-6.6v-18.1h-9.3v-6Z"/>
      <path class="st18" d="M207.7,287.2h19.9c5.1,0,6.4,2.8,6.4,7.2v1.5c0,3.2-.7,5.1-3.7,5.9h0c2,.5,3.6,1.4,3.6,5.4v4.1h-6.6v-2.9c0-2.5-.7-3.4-2.7-3.4h-10.4v6.3h-6.6v-24.1ZM214.3,299h10.9c1.8,0,2.4-.8,2.4-2.5v-.8c0-2.1-.9-2.5-3-2.5h-10.3v5.9Z"/>
      <path class="st18" d="M248.6,287.2h6.6v24.1h-6.6v-24.1Z"/>
      <path class="st18" d="M269.9,287.2h18.9c5.2,0,7.8,1.6,7.8,6.3s-1.3,4.9-3.2,5.5h0c2.9.5,3.9,2.2,3.9,5.8,0,5.3-2.8,6.4-6.6,6.4h-20.9v-24.1ZM276.4,296.7h11.7c1.2,0,1.9-.5,1.9-1.9s-.7-1.9-1.9-1.9h-11.7v3.8ZM276.4,305.5h11.8c1.4,0,2.4-.4,2.4-1.8s-1-2-2.4-2h-11.8v3.8Z"/>
      <path class="st18" d="M311.2,287.2h6.6v13.9c0,3.1,1,4.3,3.7,4.3h6.5c2.7,0,3.7-1.2,3.7-4.3v-13.9h6.6v15.5c0,6-2.8,8.8-8.8,8.8h-9.4c-6,0-8.8-2.8-8.8-8.8v-15.5Z"/>
      <path class="st18" d="M351,287.2h25.1v6h-9.3v18.1h-6.6v-18.1h-9.3v-6Z"/>
      <path class="st18" d="M389.1,287.2h6.6v24.1h-6.6v-24.1Z"/>
      <path class="st18" d="M409.9,295.6c0-7.1,3.5-8.7,9.5-8.7h10.5c5.9,0,9.5,1.7,9.5,8.7v7.2c0,7-3.5,8.7-9.5,8.7h-10.5c-5.9,0-9.5-1.7-9.5-8.7v-7.2ZM416.6,300.5c0,3.5.7,4.8,3.8,4.8h8.4c3.1,0,3.8-1.3,3.8-4.8v-2.6c0-3-.7-4.8-4.1-4.8h-7.7c-3.5,0-4.1,1.8-4.1,4.8v2.6Z"/>
      <path class="st18" d="M453.2,287.2h10.2l12.4,17.5h0v-17.5h6.6v24.1h-10.2l-12.4-17.5h0v17.5h-6.6v-24.1Z"/>
      <path class="st18" d="M521.2,287.2h6.6v17.9h14.8v6.2h-21.4v-24.1Z"/>
      <path class="st18" d="M550.3,287.2h25.1v6h-9.3v18.1h-6.6v-18.1h-9.2v-6Z"/>
      <path class="st18" d="M588.4,287.2h19.9c6.6,0,8.9,2.4,8.9,8.4v7.3c0,5.9-2.3,8.4-8.9,8.4h-19.9v-24.1ZM595,305.1h11.7c2.8,0,3.9-.9,3.9-4.3v-3.3c0-3.4-1.1-4.3-3.9-4.3h-11.7v11.9Z"/>
    </g>
    <path class="st3" d="M702.1,161.5c-1.3,1.3-2.8,1.9-4.7,1.9s-3.4-.6-4.7-1.9c-1.3-1.3-1.9-2.9-1.9-4.7s.6-3.4,1.9-4.7c1.3-1.3,2.8-1.9,4.7-1.9s3.4.6,4.7,1.9c1.3,1.3,2,2.8,2,4.7s-.7,3.4-2,4.7ZM693.4,152.8c-1.1,1.1-1.6,2.4-1.6,4s.6,2.9,1.6,4c1.1,1.1,2.4,1.7,4,1.7s2.9-.6,4-1.7c1.1-1.1,1.7-2.5,1.7-4s-.6-2.9-1.7-4c-1.1-1.1-2.4-1.7-4-1.7s-2.9.6-4,1.7ZM697.3,153.2c.9,0,1.6,0,2,.3.7.3,1.1.9,1.1,1.8s-.2,1.1-.7,1.4c-.2.2-.6.3-1,.4.6,0,1,.3,1.3.7.3.4.4.8.4,1.1v.5c0,.2,0,.3,0,.5,0,.2,0,.3,0,.4h0c0,0-1.2,0-1.2,0,0,0,0,0,0,0,0,0,0,0,0,0v-.2s0-.6,0-.6c0-.8-.2-1.4-.7-1.7-.3-.2-.7-.2-1.4-.2h-1v2.9h-1.3v-7.3h2.6ZM698.7,154.3c-.3-.2-.8-.3-1.6-.3h-1.1v2.6h1.2c.5,0,.9,0,1.2-.2.5-.2.8-.6.8-1.1s-.2-.9-.5-1.1Z"/>
  </g>
  <path class="st13" d="M482.1,111.5c.7-5.3-.4-11.4-3.3-18.2-4.8-6.6-11.5-11.6-19.9-14.9l-5.7-.4v-1c.1,0,1.9,0,1.9,0l-.8-5.4h-12.1c0,0,.7,5.2.7,5.2l1.9.9-29.6-1-.2-1.7h12.7c0,0-.1-1.2-.1-1.2h2.3s-.3-3.1-.3-3.1h1.3s-.2-1.7-.2-1.7l-.5-4-1.1-9.9-1.8-.8-.5-4.2h-15.9c0,.1-.3-3.4-.3-3.4h15.3c.4,3.1,2,5.3,8,5.5,5.9,0,6.2-2.5,3.5-5.4l1.6-.7-1.6-12.4-4.6-.7-1.2-2.3-23.5.3.5.6,22.1-.3.7,1.5-5.2.5,1.2,12.4,5.2.7-3.3.7-4.3-1.9h-14.1c0,0-1.4-9.8-1.4-9.8l-1.3-1.3-3-34.1h-6.1s1.9,25.1,1.9,25.1c-3.3,0-5.2.7-5.8,1.8l-5.3-1.8c-7.7-3.4-21.9-5.2-42.4-5.5h-3.5c-20.5.6-34.6,2.6-42.4,6.1l-5.3,1.8c-.6-1.2-2.5-1.8-5.7-1.8l2.1-25.1h-6.1s-3.1,34.1-3.1,34.1l-1.3,1.3-1.4,9.9h-14c0,0-4.3,2-4.3,2l-3.3-.7,5.2-.7,1.2-12.4-5.2-.4.7-1.5h22s.5-.6.5-.6h-23.4s-1.2,2.3-1.2,2.3l-4.6.7-1.6,12.4,1.6.7c-2.8,3-2.4,5.4,3.4,5.4,5.9-.3,7.6-2.5,7.9-5.6l15.3-.2-.3,3.5h-15.8c0,.1-.5,4.3-.5,4.3l-1.8.9-1.2,9.9-.5,4-.2,1.6h1.3s-.4,3.1-.4,3.1h2.3s-.1,1.1-.1,1.1h12.6c0,0-.2,1.6-.2,1.6l-29.4,1.3,1.9-.9.7-5.1h-12c0,0-.8,5.5-.8,5.5h1.8s.1,1,.1,1l-5.6.4c-8.4,3.4-15,8.4-19.8,15.1-3,7-4.1,13.3-3.3,18.7.3,0,.6,0,.8-.1-31.1,6.9-64.1,16.1-95,27.6,164.4-34.6,312.1-35.2,462-.9-34.9-12.6-60.2-21.5-94.8-28.6ZM241.3,99.2h-19.7c0,.1,1.1-6.7,1.1-6.7h19.5c0-.1-.9,6.7-.9,6.7ZM263.3,99h-19.7c0,.1.9-6.7.9-6.7h19.5c0-.1-.7,6.7-.7,6.7ZM301.1,27.6l44.6-.6h44.6c3.1.8,4.6,1.7,4.5,2.8-3.1-.8-19.5-1-49.1-.7-29.6,0-45.9.5-49,1.3,0-1.1,1.4-2,4.5-2.9ZM352.5,32.3l34.5.3,4-1.3,1.3,9.9-22-1.5c29.3-3.2,23.2-5.7-17.8-7.5ZM320.9,40.1l-22,1.8,1.4-9.9,4,1.2,34.5-.8c-41,2.4-47.1,5-17.9,7.7ZM286,101.1l4.2-52.7c.1-.9,1.4-1.5,3.8-1.9l45.6-3.7,1.9.3v4.9s4.1,0,4.1,0h4.1s0-4.9,0-4.9l1.9-.4,45.6,3.1c2.4.4,3.7,1,3.8,1.9l4,52.6c-39.8-3.4-79.5-3.1-119,.8ZM409.2,101.1l-4.3-54.2c-.9-1.2-2.7-2-5.5-2.3l-46.5-3.1v-.2s-14.5,0-14.5,0v.2s-46.5,3.7-46.5,3.7c-2.8.4-4.6,1.2-5.5,2.4l-4.6,53.8c-.8,0-1.6.2-2.4.2l4.8-54.2c.3-1.8,2.9-3,7.8-3.7l46-3.8v-2s3.5-1,3.5-1v-1.5s4.1,0,4.1,0h4.5s0,1.5,0,1.5l3.3,1v2s45.9,3.2,45.9,3.2c4.9.6,7.5,1.9,7.8,3.6l4.6,54.3h-2.4ZM427.8,98.1l-.7-6.8h19.7c0-.1.9,6.7.9,6.7h-19.8ZM450,98l-.9-6.8h19.7c0-.1,1.1,6.7,1.1,6.7h-19.9Z"/>
  <g>
    <path class="st13" d="M304.3,98.3c3.9-.3,7.9-.5,11.8-.7l1.7-44h-11.1c0,0-2.5,44.7-2.5,44.7Z"/>
    <path class="st13" d="M388,97.5c4.8.2,9.5.5,14.2.8l-3.5-45.2h-13.2c0,0,2.4,44.4,2.4,44.4Z"/>
    <path class="st13" d="M330.9,53.6h-11.7c0,0-1.7,44-1.7,44,4.2-.2,8.4-.4,12.6-.5l.8-43.5Z"/>
    <path class="st13" d="M345,53.5h-12.7c0,0-.8,43.5-.8,43.5,4.5-.1,9-.2,13.6-.3v-43.3Z"/>
    <path class="st13" d="M305.4,53.7h-12.9c0,0-3.7,45.8-3.7,45.8,4.7-.4,9.5-.8,14.2-1.1l2.5-44.7Z"/>
    <path class="st13" d="M384.2,53.2h-11.1c0,0,1.7,43.8,1.7,43.8,3.9.1,7.9.3,11.8.5l-2.4-44.3Z"/>
    <path class="st13" d="M371.8,53.3h-11.7c0,0,.8,43.4.8,43.4,4.2,0,8.4.1,12.6.2l-1.7-43.7Z"/>
    <path class="st13" d="M358.7,53.4h-12.3v43.3c4.4,0,8.7,0,13.1,0l-.8-43.3Z"/>
  </g>
</svg>